<svg xmlns="http://www.w3.org/2000/svg" width="28" height="29" viewBox="0 0 28 29">
    <g>
        <path fill="none" d="M0 0H28V29H0z" transform="translate(-.046 .243) translate(.046 -.243)"/>
        <g>
            <path fill="#fff" d="M18.273 14.276a5.939 5.939 0 0 0 3.606 5.437 14.7 14.7 0 0 1-1.86 3.822c-1.12 1.637-2.282 3.268-4.113 3.3-1.8.033-2.378-1.067-4.435-1.067s-2.7 1.033-4.4 1.1c-1.767.067-3.113-1.77-4.243-3.4C.519 20.132-1.244 14.041 1.124 9.93a6.578 6.578 0 0 1 5.56-3.368c1.736-.033 3.374 1.168 4.435 1.168s3.051-1.445 5.144-1.23a6.277 6.277 0 0 1 4.915 2.665 6.077 6.077 0 0 0-2.9 5.113M14.892 4.29A5.919 5.919 0 0 0 16.289 0a6.024 6.024 0 0 0-3.958 2.037 5.624 5.624 0 0 0-1.425 4.157 4.984 4.984 0 0 0 3.986-1.9" transform="translate(-.046 .243) translate(2.804 .104)"/>
        </g>
    </g>
</svg>
