<svg xmlns="http://www.w3.org/2000/svg" width="28" height="28" viewBox="0 0 28 28">
    <g>
        <g>
            <path fill="#4285f4" d="M284.613 225.747a15.325 15.325 0 0 0-.225-2.647H272.1v5.017h7.037a6.03 6.03 0 0 1-2.6 3.959v3.255h4.2a12.724 12.724 0 0 0 3.876-9.584z" transform="translate(-.253 -.046) translate(1.006 1.036) translate(-259.307 -212.42)"/>
            <path fill="#34a853" d="M40.542 334.831a12.471 12.471 0 0 0 8.636-3.145l-4.2-3.255a7.9 7.9 0 0 1-11.746-4.131H28.9v3.356a13.029 13.029 0 0 0 11.642 7.175z" transform="translate(-.253 -.046) translate(1.006 1.036) translate(-27.514 -308.775)"/>
            <path fill="#fbbc04" d="M5.663 158.344a7.8 7.8 0 0 1 0-4.988V150H1.336a13.039 13.039 0 0 0 0 11.7z" transform="translate(-.253 -.046) translate(1.006 1.036) translate(.05 -142.819)"/>
            <path fill="#ea4335" d="M40.408 5.138a6.954 6.954 0 0 1 4.94 1.953l3.677-3.719a12.3 12.3 0 0 0-8.617-3.389A12.86 12.86 0 0 0 28.9 7.163l4.278 3.356a7.713 7.713 0 0 1 7.23-5.38z" transform="translate(-.253 -.046) translate(1.006 1.036) translate(-27.514 .018)"/>
        </g>
        <path fill="none" d="M0 0H28V28H0z" transform="translate(-.253 -.046) translate(.253 .046)"/>
    </g>
</svg>
