<svg width="172" height="53" viewBox="0 0 172 53" fill="none" xmlns="http://www.w3.org/2000/svg">
<path fill-rule="evenodd" clip-rule="evenodd" d="M21.4261 0.277605C15.2426 1.29473 10.1267 3.71105 6.06115 7.53498C3.05533 10.3623 1.19483 13.4958 0.315534 17.2121C-0.170808 19.2682 -0.0845837 22.8719 0.502708 25.0387C1.07489 27.1499 2.19774 29.4444 3.52985 31.2251C4.76508 32.8761 7.54905 35.4897 9.29329 36.6359C10.0476 37.1314 10.7085 37.6069 10.762 37.6927C10.8473 37.8288 9.7837 41.936 8.2526 47.383C7.98482 48.3354 7.76587 49.3447 7.76587 49.6258C7.76587 50.1996 8.43163 50.9184 8.96274 50.9184C9.25512 50.9184 15.5743 46.8202 21.6198 42.7099L23.1699 41.656L25.9795 41.7016C35.9051 41.8619 44.9615 37.902 50.0141 31.1925C51.0449 29.8238 52.4295 27.0463 52.9263 25.3514C53.4404 23.5972 53.62 20.2545 53.3121 18.1729C52.0077 9.35607 43.319 2.08587 31.9191 0.272818C29.6183 -0.0931629 23.6634 -0.0902913 21.4261 0.277605ZM162.963 3.27957C162.858 3.51647 161.157 9.31222 159.182 16.1588C157.207 23.0054 155.545 28.7578 155.489 28.9423C155.296 29.5727 155.069 29.277 154.682 27.889C154.469 27.1252 153.795 24.82 153.185 22.766C152.575 20.712 152.009 18.7729 151.927 18.457C151.846 18.141 151.289 16.2235 150.689 14.1958C148.545 6.94053 147.468 3.24701 147.468 3.14436C147.468 2.8998 146.482 3.09476 143.248 3.97897C141.36 4.4951 139.537 4.97465 139.198 5.04455C138.171 5.25598 138.144 5.46166 138.882 7.44497C139.254 8.44562 139.894 10.1692 140.305 11.2752C140.715 12.3812 142.108 16.1301 143.399 19.606C144.691 23.082 146.083 26.8308 146.493 27.9368C146.903 29.0428 147.734 31.2835 148.339 32.9162C148.945 34.5488 149.65 36.4467 149.907 37.1335C150.164 37.8204 150.375 38.4752 150.375 38.5886C150.375 38.95 148.315 42.0517 147.118 43.4938C146.483 44.2593 145.299 45.5194 144.487 46.2939C143.676 47.0686 143.012 47.8011 143.012 47.9218C143.012 48.1269 148.092 52.8528 148.463 52.9934C148.809 53.1244 151.121 51.2841 152.832 49.5142C154.642 47.6429 156.481 45.0801 157.906 42.4422C159.813 38.9134 160.252 37.7969 167.749 17.4036C172.119 5.51759 172.125 5.50016 171.945 5.33699C171.857 5.2577 170.783 4.9124 169.557 4.5696C168.331 4.22698 166.467 3.69955 165.414 3.39754C164.361 3.09571 163.422 2.84866 163.327 2.84866C163.232 2.84866 163.068 3.04267 162.963 3.27957ZM84.3018 3.33051C81.9646 3.80259 80.5573 4.43784 78.591 5.90884C77.8842 6.4378 77.2806 6.87043 77.2498 6.87043C77.219 6.87043 76.9543 6.26678 76.6614 5.52927C76.2748 4.55523 76.0144 4.15995 75.7104 4.08564C75.4802 4.02953 74.0276 4.00827 72.4823 4.03853L69.6728 4.0935L69.6235 27.7966L69.5743 51.4998L74.1769 51.4485L78.7796 51.3971L78.8307 45.1251C78.8879 38.1031 78.7489 38.6663 80.3297 39.0507C80.7559 39.1543 82.369 39.2434 83.9142 39.2485C86.1435 39.256 87.039 39.1769 88.2503 38.8655C94.2441 37.3246 98.3144 32.7821 99.9306 25.8302C100.452 23.5862 100.4 16.8105 99.8417 14.3025C99.0201 10.6114 97.5204 7.77246 95.4117 5.91574C92.8409 3.65244 88.1328 2.5568 84.3018 3.33051ZM116.878 3.34813C113.901 3.8227 109.313 5.48732 107.781 6.64827L107.33 6.98974L108.527 9.85075C109.186 11.4242 109.791 12.782 109.873 12.8682C109.954 12.9546 110.36 12.8843 110.773 12.7125C113.724 11.4863 115.981 11.0157 118.985 11.0008C121.255 10.9897 121.716 11.0412 122.473 11.3907C124.269 12.2201 125.076 13.5157 125.297 15.9194L125.433 17.4036L122.257 17.4052C114.991 17.4088 111.099 18.4598 108.372 21.155C106.393 23.1117 105.61 25.2491 105.622 28.6644C105.634 31.9555 106.514 34.5289 108.256 36.3693C110.117 38.3364 112.611 39.2616 116.062 39.2652C119.223 39.2686 122.033 38.3994 125.073 36.4775C125.692 36.0857 126.306 35.8055 126.437 35.8551C126.568 35.9047 126.823 36.4697 127.005 37.1107C127.26 38.0075 127.435 38.3 127.763 38.3802C127.997 38.4375 129.453 38.4595 130.998 38.4292L133.808 38.3743V25.8302C133.808 11.9034 133.83 12.187 132.515 9.41372C131.043 6.31045 128.38 4.36602 124.41 3.49425C122.509 3.07676 119.006 3.00877 116.878 3.34813ZM87.108 11.1862C89.7102 12.403 90.8897 15.3575 90.8897 20.6593C90.8897 27.0488 89.0712 30.5906 85.0768 31.9822C84.0658 32.3343 83.3969 32.4224 81.686 32.4291C80.5137 32.4337 79.4019 32.3755 79.2155 32.2997C78.8985 32.1712 78.8764 31.4986 78.8764 22.0099V11.8576L79.6031 11.5008C80.2839 11.1664 81.4417 10.8225 82.5579 10.6231C83.7596 10.4084 86.0512 10.6921 87.108 11.1862ZM125.336 26.4407C125.398 29.9447 125.464 29.8096 123.151 30.9053C119.506 32.632 115.643 32.5753 114.538 30.7791C113.67 29.3684 113.79 26.8898 114.788 25.5962C116.113 23.8792 117.948 23.3405 122.279 23.397L125.282 23.4363L125.336 26.4407Z" fill="black"/>
</svg>
