<?xml version="1.0" standalone="no"?>
<!DOCTYPE svg PUBLIC "-//W3C//DTD SVG 20010904//EN"
 "http://www.w3.org/TR/2001/REC-SVG-20010904/DTD/svg10.dtd">
<svg version="1.0" xmlns="http://www.w3.org/2000/svg"
 width="1489.000000pt" height="600.000000pt" viewBox="0 0 1489.000000 600.000000"
 preserveAspectRatio="xMidYMid meet">
<metadata>
Created by potrace 1.16, written by Peter Selinger 2001-2019
</metadata>
<g transform="translate(0.000000,600.000000) scale(0.100000,-0.100000)"
fill="#000000" stroke="none">
<path d="M3435 4469 c-296 -31 -600 -140 -837 -300 -124 -84 -299 -259 -372
-371 -288 -443 -234 -960 141 -1349 84 -87 191 -176 277 -230 22 -13 44 -27
49 -30 4 -3 -35 -169 -89 -369 -105 -391 -106 -399 -52 -430 21 -11 34 -12 55
-4 15 6 210 133 432 284 l405 273 170 -2 c192 -2 308 9 475 45 228 51 460 151
638 277 106 75 261 227 327 320 320 454 263 1015 -144 1417 -352 348 -916 527
-1475 469z"/>
<path d="M11611 3512 c-123 -433 -229 -800 -235 -816 -11 -26 -34 50 -246 783
-163 563 -239 811 -248 811 -13 0 -535 -139 -540 -144 -1 -2 164 -457 368
-1011 l370 -1009 -50 -84 c-79 -132 -155 -228 -287 -360 l-122 -124 62 -57
c211 -196 273 -251 282 -251 18 0 130 86 205 157 188 177 367 463 508 813 98
243 703 1923 695 1930 -8 7 -514 150 -530 150 -4 0 -109 -354 -232 -788z"/>
<path d="M7084 4266 c-128 -29 -253 -93 -349 -178 l-53 -48 -32 90 -32 90
-199 0 -199 0 0 -1440 0 -1440 280 0 280 0 0 389 0 389 63 -14 c99 -22 283
-29 389 -14 417 56 702 338 810 800 29 127 37 447 13 612 -39 276 -118 453
-266 594 -76 72 -145 113 -254 150 -71 24 -97 28 -235 30 -107 3 -174 -1 -216
-10z m149 -456 c169 -52 254 -213 273 -515 17 -275 -46 -520 -164 -648 -96
-102 -184 -137 -364 -145 -69 -2 -142 -2 -162 2 l-36 7 0 623 0 624 50 21
c125 54 289 66 403 31z"/>
<path d="M9090 4274 c-90 -16 -188 -40 -270 -66 -102 -33 -263 -108 -303 -142
l-25 -21 75 -183 c62 -150 79 -182 92 -176 9 4 72 26 141 50 162 56 289 77
433 73 103 -4 118 -7 180 -37 105 -52 157 -148 157 -293 l0 -67 -267 -5 c-215
-4 -286 -9 -358 -25 -294 -64 -472 -211 -535 -445 -29 -104 -31 -284 -5 -397
52 -228 195 -378 415 -437 98 -26 310 -23 414 5 94 26 238 93 335 156 48 31
73 42 76 34 3 -7 15 -44 28 -83 l24 -70 197 -3 197 -2 -4 757 c-3 748 -3 759
-25 843 -71 270 -240 440 -507 511 -65 18 -114 22 -260 25 -99 1 -191 0 -205
-2z m480 -1413 l0 -190 -32 -24 c-121 -90 -358 -154 -480 -128 -118 25 -168
91 -168 219 0 97 15 143 62 197 79 90 166 113 426 114 l192 1 0 -189z"/>
</g>
</svg>
