<svg width="105" height="59" viewBox="0 0 105 59" fill="none" xmlns="http://www.w3.org/2000/svg">
<path d="M93.556 13.6091V17.146H83.8562V13.6091H93.556ZM72.9092 20.8217H63.4173V15.1348H72.9092V20.8217ZM83.8562 25.5376H93.556V29.4214H104.78V0.224121H93.556V5.21747H83.8562V0.224122H72.9092V6.81257H63.4173V0.224122H52.3318V29.4214H83.8562V25.5376Z" fill="#F6C8BE"/>
<path d="M22.9965 39.78L18.72 44.5407V58.5H0V0H18.72V22.5124L31.5945 0.224138H52.3317L35.4228 26.8697L52.3317 58.5H30.3034L22.9965 39.78Z" fill="#F0FDA8"/>
<path d="M72.355 47.8198V49.9697H104.78V58.5H52.3318V39.8443H93.6946V37.8331H52.3318V29.3721H104.78V47.8198H72.355Z" fill="#DEF8FF"/>
</svg>
