<?xml version="1.0" standalone="no"?>
<!DOCTYPE svg PUBLIC "-//W3C//DTD SVG 20010904//EN"
 "http://www.w3.org/TR/2001/REC-SVG-20010904/DTD/svg10.dtd">
<svg version="1.0" xmlns="http://www.w3.org/2000/svg"
 width="200.000000pt" height="200.000000pt" viewBox="0 0 200.000000 200.000000"
 preserveAspectRatio="xMidYMid meet">
<metadata>
Created by potrace 1.14, written by Peter Selinger 2001-2017
</metadata>
<g transform="translate(0.000000,200.000000) scale(0.100000,-0.100000)"
fill="#000000" stroke="none">
<path d="M2 1003 l3 -608 145 0 145 0 3 146 3 147 44 48 c28 31 45 43 45 33 0
-9 6 -22 14 -29 8 -6 12 -18 9 -26 -3 -8 0 -14 6 -14 6 0 11 -5 11 -12 0 -7
25 -75 55 -153 l55 -141 728 1 727 0 3 88 c2 65 0 87 -10 88 -7 0 -140 0 -296
1 l-283 0 3 22 c3 21 4 21 293 22 l290 0 0 494 0 494 -60 2 c-33 1 -65 -1 -71
-3 -6 -2 -10 -24 -9 -48 2 -54 1 -54 -117 -53 l-88 1 2 31 c4 77 10 73 -112
72 -66 0 -111 -4 -113 -11 -2 -5 -3 -36 -2 -67 l1 -58 -97 0 -98 0 -3 67 -3
67 -113 2 -112 1 -1 -31 c-4 -160 0 -738 5 -744 4 -4 197 -7 429 -7 414 0 422
-1 422 -20 0 -20 -8 -20 -428 -20 -372 0 -427 -2 -428 -15 0 -8 -1 -96 -1
-195 0 -99 -3 -173 -6 -165 -3 8 -8 17 -11 20 -3 3 -17 25 -30 50 -44 84 -108
205 -128 240 -11 19 -39 73 -63 120 -24 47 -53 101 -65 120 -55 91 -58 78 59
261 58 90 128 202 157 249 29 47 59 91 66 98 35 35 19 39 -198 38 l-211 -1
-99 -169 c-55 -92 -99 -169 -99 -171 0 -1 -16 -29 -35 -61 l-35 -58 0 232 0
232 -150 0 -150 0 2 -607z m1849 318 c5 -39 4 -53 -5 -60 -6 -4 -51 -7 -101
-7 l-90 1 -1 30 c0 17 1 32 2 35 4 8 194 9 195 1z m-430 -30 c3 0 5 -27 4 -58
l-1 -57 -90 -1 c-49 0 -93 3 -99 7 -5 3 -9 30 -7 60 l4 54 91 -2 c51 -1 95 -2
98 -3z m432 -250 c-2 -38 -19 -54 -42 -42 -9 5 -25 5 -36 1 -11 -4 -28 -4 -37
1 -10 6 -19 5 -23 -1 -4 -6 -12 -7 -18 -3 -7 4 -19 8 -27 8 -10 0 -15 11 -16
38 l-1 38 101 -3 101 -3 -2 -34z"/>
</g>
</svg>
